<?xml version="1.0" ?><svg viewBox="0 0 64 64" xmlns="http://www.w3.org/2000/svg"><defs><style>.cls-1{fill:#c2fb3b;}.cls-2{fill:#006df0;}.cls-3{fill:#d80027;}.cls-4{fill:#933ec5;}.cls-5{fill:#ffda44;}.cls-6{fill:#ea348b;}.cls-7{fill:#231f20;}</style></defs><title/><g id="holiday-travel-hotel"><path class="cls-1" d="M56.38,49.9,57,44.942a3,3,0,0,0-6,0l.62,4.957a2.4,2.4,0,0,0,4.76,0Z"/><path class="cls-2" d="M53,53.871a4.4,4.4,0,0,1-3.364-3.724l-.628-5.023A.852.852,0,0,1,49,45a5,5,0,0,1,10,0,.852.852,0,0,1-.008.124l-.628,5.023A4.4,4.4,0,0,1,55,53.871V60h5V10H44V60h9ZM48,12a1,1,0,0,1,1-1h6a1,1,0,0,1,1,1v6a1,1,0,0,1-1,1H49a1,1,0,0,1-1-1Zm0,10a1,1,0,0,1,1-1h6a1,1,0,0,1,1,1v6a1,1,0,0,1-1,1H49a1,1,0,0,1-1-1Zm0,16V32a1,1,0,0,1,1-1h6a1,1,0,0,1,1,1v6a1,1,0,0,1-1,1H49A1,1,0,0,1,48,38Z"/><rect class="cls-2" height="4" width="4" x="35" y="18"/><path class="cls-3" d="M32,50a5.006,5.006,0,0,0-5,5v5H37V55A5.006,5.006,0,0,0,32,50Z"/><rect class="cls-2" height="4" width="4" x="35" y="38"/><rect class="cls-4" height="4" width="4" x="35" y="28"/><rect class="cls-5" height="4" width="4" x="50" y="13"/><rect class="cls-3" height="4" width="4" x="50" y="23"/><rect class="cls-4" height="4" width="4" x="50" y="33"/><rect class="cls-5" height="4" width="4" x="25" y="38"/><rect class="cls-4" height="4" width="4" x="10" y="33"/><path class="cls-5" d="M9,53.871a4.4,4.4,0,0,1-3.364-3.724l-.628-5.023A.852.852,0,0,1,5,45a5,5,0,0,1,10,0,.852.852,0,0,1-.008.124l-.628,5.023A4.4,4.4,0,0,1,11,53.871V60h9V10H4V60H9ZM8,12a1,1,0,0,1,1-1h6a1,1,0,0,1,1,1v6a1,1,0,0,1-1,1H9a1,1,0,0,1-1-1ZM8,22a1,1,0,0,1,1-1h6a1,1,0,0,1,1,1v6a1,1,0,0,1-1,1H9a1,1,0,0,1-1-1ZM8,32a1,1,0,0,1,1-1h6a1,1,0,0,1,1,1v6a1,1,0,0,1-1,1H9a1,1,0,0,1-1-1Z"/><rect class="cls-2" height="4" width="4" x="10" y="23"/><rect class="cls-3" height="4" width="4" x="10" y="13"/><path class="cls-1" d="M12.38,49.9,13,44.942a3,3,0,0,0-6,0L7.62,49.9a2.4,2.4,0,0,0,4.76,0Z"/><path class="cls-1" d="M32,9.236a1.033,1.033,0,0,1,.184.017A1.007,1.007,0,0,1,32.3,8.9a.994.994,0,0,1-.3-.216.994.994,0,0,1-.3.216,1.007,1.007,0,0,1,.114.35A1.033,1.033,0,0,1,32,9.236Z"/><rect class="cls-1" height="4" width="4" x="25" y="18"/><path class="cls-6" d="M25,55a7,7,0,0,1,14,0v5h3V4H22V60h3ZM41,43a1,1,0,0,1-1,1H34a1,1,0,0,1-1-1V37a1,1,0,0,1,1-1h6a1,1,0,0,1,1,1Zm0-10a1,1,0,0,1-1,1H34a1,1,0,0,1-1-1V27a1,1,0,0,1,1-1h6a1,1,0,0,1,1,1Zm0-16v6a1,1,0,0,1-1,1H34a1,1,0,0,1-1-1V17a1,1,0,0,1,1-1h6A1,1,0,0,1,41,17ZM27.971,7.691A1,1,0,0,1,28.922,7h1.625l.5-1.545a1,1,0,0,1,1.9,0L33.453,7h1.625a1,1,0,0,1,.588,1.809l-1.314.955.5,1.545a1,1,0,0,1-1.54,1.118L32,11.472l-1.314.955a1,1,0,0,1-1.54-1.118l.5-1.545-1.314-.955A1,1,0,0,1,27.971,7.691ZM23,17a1,1,0,0,1,1-1h6a1,1,0,0,1,1,1v6a1,1,0,0,1-1,1H24a1,1,0,0,1-1-1Zm0,10a1,1,0,0,1,1-1h6a1,1,0,0,1,1,1v6a1,1,0,0,1-1,1H24a1,1,0,0,1-1-1Zm0,16V37a1,1,0,0,1,1-1h6a1,1,0,0,1,1,1v6a1,1,0,0,1-1,1H24A1,1,0,0,1,23,43Z"/><rect class="cls-3" height="4" width="4" x="25" y="28"/><path class="cls-7" d="M61,8H44V3a1,1,0,0,0-1-1H21a1,1,0,0,0-1,1V8H3A1,1,0,0,0,2,9V61a1,1,0,0,0,1,1H61a1,1,0,0,0,1-1V9A1,1,0,0,0,61,8ZM10,52a2.4,2.4,0,0,1-2.38-2.1L7,44.942a3,3,0,0,1,6,0L12.38,49.9A2.4,2.4,0,0,1,10,52Zm1,1.871a4.4,4.4,0,0,0,3.364-3.724l.628-5.023A.852.852,0,0,0,15,45,5,5,0,0,0,5,45a.852.852,0,0,0,.008.124l.628,5.023A4.4,4.4,0,0,0,9,53.871V60H4V10H20V60H11ZM27,60V55a5,5,0,0,1,10,0v5Zm12,0V55a7,7,0,0,0-14,0v5H22V4H42V60Zm15-8a2.4,2.4,0,0,1-2.38-2.1L51,44.942a3,3,0,0,1,6,0L56.38,49.9A2.4,2.4,0,0,1,54,52Zm6,8H55V53.871a4.4,4.4,0,0,0,3.364-3.724l.628-5.023A.852.852,0,0,0,59,45a5,5,0,0,0-10,0,.852.852,0,0,0,.008.124l.628,5.023A4.4,4.4,0,0,0,53,53.871V60H44V10H60Z"/><path class="cls-7" d="M30,36H24a1,1,0,0,0-1,1v6a1,1,0,0,0,1,1h6a1,1,0,0,0,1-1V37A1,1,0,0,0,30,36Zm-1,6H25V38h4Z"/><path class="cls-7" d="M40,36H34a1,1,0,0,0-1,1v6a1,1,0,0,0,1,1h6a1,1,0,0,0,1-1V37A1,1,0,0,0,40,36Zm-1,6H35V38h4Z"/><path class="cls-7" d="M30,26H24a1,1,0,0,0-1,1v6a1,1,0,0,0,1,1h6a1,1,0,0,0,1-1V27A1,1,0,0,0,30,26Zm-1,6H25V28h4Z"/><path class="cls-7" d="M40,26H34a1,1,0,0,0-1,1v6a1,1,0,0,0,1,1h6a1,1,0,0,0,1-1V27A1,1,0,0,0,40,26Zm-1,6H35V28h4Z"/><path class="cls-7" d="M30,16H24a1,1,0,0,0-1,1v6a1,1,0,0,0,1,1h6a1,1,0,0,0,1-1V17A1,1,0,0,0,30,16Zm-1,6H25V18h4Z"/><path class="cls-7" d="M40,16H34a1,1,0,0,0-1,1v6a1,1,0,0,0,1,1h6a1,1,0,0,0,1-1V17A1,1,0,0,0,40,16Zm-1,6H35V18h4Z"/><path class="cls-7" d="M49,39h6a1,1,0,0,0,1-1V32a1,1,0,0,0-1-1H49a1,1,0,0,0-1,1v6A1,1,0,0,0,49,39Zm1-6h4v4H50Z"/><path class="cls-7" d="M15,31H9a1,1,0,0,0-1,1v6a1,1,0,0,0,1,1h6a1,1,0,0,0,1-1V32A1,1,0,0,0,15,31Zm-1,6H10V33h4Z"/><path class="cls-7" d="M49,29h6a1,1,0,0,0,1-1V22a1,1,0,0,0-1-1H49a1,1,0,0,0-1,1v6A1,1,0,0,0,49,29Zm1-6h4v4H50Z"/><path class="cls-7" d="M15,21H9a1,1,0,0,0-1,1v6a1,1,0,0,0,1,1h6a1,1,0,0,0,1-1V22A1,1,0,0,0,15,21Zm-1,6H10V23h4Z"/><path class="cls-7" d="M49,19h6a1,1,0,0,0,1-1V12a1,1,0,0,0-1-1H49a1,1,0,0,0-1,1v6A1,1,0,0,0,49,19Zm1-6h4v4H50Z"/><path class="cls-7" d="M15,11H9a1,1,0,0,0-1,1v6a1,1,0,0,0,1,1h6a1,1,0,0,0,1-1V12A1,1,0,0,0,15,11Zm-1,6H10V13h4Z"/><path class="cls-7" d="M33.9,12.618a1,1,0,0,0,.952-1.309l-.5-1.545,1.314-.955A1,1,0,0,0,35.078,7H33.453l-.5-1.545a1,1,0,0,0-1.9,0L30.547,7H28.922a1,1,0,0,0-.588,1.809l1.314.955-.5,1.545a1,1,0,0,0,1.54,1.118L32,11.472l1.314.955A1,1,0,0,0,33.9,12.618ZM32.184,9.253a1,1,0,0,0-.368,0A1.007,1.007,0,0,0,31.7,8.9a.994.994,0,0,0,.3-.216.994.994,0,0,0,.3.216A1.007,1.007,0,0,0,32.184,9.253Z"/></g></svg>