<?xml version="1.0" ?><svg enable-background="new 0 0 512 512" id="Layer_1" version="1.1" viewBox="0 0 512 512" xml:space="preserve" xmlns="http://www.w3.org/2000/svg" xmlns:xlink="http://www.w3.org/1999/xlink"><g><g><path d="M307.5,64.2v14.4c-9.3-2.3-18.8-4-28.4-5v-9.4c0-6.4-2.6-12.1-6.8-16.3c-4.2-4.2-9.9-6.8-16.3-6.8    c-12.7,0-23.1,10.3-23.1,23.1v9.4c-9.6,1-19.1,2.7-28.4,5V64.2c0-28.4,23-51.5,51.5-51.5c14.2,0,27.1,5.8,36.4,15.1    S307.5,50,307.5,64.2z" fill="#A97C50"/><g><path d="M300,64.2c0,4.8,0,9.6,0,14.4c3.2-2.4,6.3-4.8,9.5-7.2c-10-2.4-20.1-4.1-30.4-5.2c2.5,2.5,5,5,7.5,7.5     c0-7.9,0.4-15.5-3.1-22.8c-5.3-11.2-17.8-18.2-30.1-17c-10.8,1.1-20.5,7.7-25,17.7c-3.2,7.1-2.8,14.6-2.8,22.2     c2.5-2.5,5-5,7.5-7.5c-10.2,1.1-20.4,2.8-30.4,5.2c3.2,2.4,6.3,4.8,9.5,7.2c0-8.6-0.7-17.5,1.5-25.9c3.3-12.4,12-22.6,23.5-28.2     C266,10.5,299.5,32.8,300,64.2c0.2,9.6,15.2,9.7,15,0c-0.5-31.6-25.5-57.9-57.3-58.9c-27-0.9-52,17.9-58.7,44.1     c-2.4,9.5-1.9,19.4-1.9,29.2c0,5,4.8,8.4,9.5,7.2c8.7-2.1,17.5-3.7,26.4-4.7c4-0.4,7.5-3.1,7.5-7.5c0-3.9-0.5-8.2,0.2-12     c1.1-6.6,6.7-12,13.4-12.8c7.6-1,15,4,17,11.4c1.2,4.2,0.6,9.2,0.6,13.5c0,4.4,3.5,7.1,7.5,7.5c8.9,1,17.7,2.6,26.4,4.7     c4.7,1.1,9.5-2.2,9.5-7.2c0-4.8,0-9.6,0-14.4C315,54.6,300,54.6,300,64.2z"/></g></g><g><path d="M406.9,134.9C379,107,344.8,87.8,307.5,78.6c-9.3-2.3-18.8-4-28.4-5c-7.6-0.8-15.3-1.2-23.1-1.2    s-15.5,0.4-23.1,1.2c-9.6,1-19.1,2.7-28.4,5c-37.3,9.2-71.6,28.4-99.5,56.3c-40.3,40.3-62.5,93.9-62.5,150.9    c0,57,22.2,110.6,62.5,150.9C145.4,477,199,499.2,256,499.2s110.6-22.2,150.9-62.5c40.3-40.3,62.5-93.9,62.5-150.9    C469.4,228.8,447.2,175.2,406.9,134.9z M272.8,450.6c-5.5,0.6-11.1,0.9-16.8,0.9s-11.3-0.3-16.8-0.9c-78-7.9-140.2-70.1-148-148    c-0.6-5.5-0.8-11.1-0.8-16.8c0-5.7,0.3-11.3,0.8-16.8c7.9-78,70.1-140.1,148-148c5.5-0.6,11.1-0.8,16.8-0.8s11.3,0.3,16.8,0.8    c78,7.9,140.1,70,148,148c0.6,5.5,0.8,11.1,0.8,16.8c0,5.7-0.3,11.3-0.8,16.8C413,380.6,350.8,442.8,272.8,450.6z" fill="#9B8579"/><g><path d="M272.8,443.1c-34.8,3.3-69.7-4.2-99.6-22.6c-26.2-16.1-47.2-39.7-60.4-67.4c-28.8-60.5-14.6-134.6,33.3-181     c48-46.4,122.6-57.9,182.1-27.1c59.1,30.6,93.8,96.4,84.6,162.5C404,370.4,356.8,423.1,295.6,439     C288.1,440.9,280.5,442.3,272.8,443.1c-4,0.4-7.5,3.1-7.5,7.5c0,3.7,3.4,7.9,7.5,7.5c69.3-7.3,129-55.8,149.2-122.8     c21.2-70.5-6.1-147.7-65.5-190.5c-59-42.5-141.9-42.5-200.9,0c-59.4,42.8-86.7,120-65.5,190.5c20,66.8,79.9,115.8,149.2,122.8     c11.2,1.1,22.4,1.1,33.6,0C282.3,457.2,282.4,442.2,272.8,443.1z"/><path d="M412.2,129.6c-33.4-33.2-76.8-55.5-123.5-62.2c-49.5-7.2-100.8,2.2-144.1,27.6c-38.7,22.7-70.5,57.4-89.2,98.1     c-18.6,40.6-24.5,86-17.2,130c14.7,88.7,86,162,174.2,179.3c43.8,8.6,89.5,4,130.5-13.5c40.8-17.4,75.7-47.4,99.6-84.7     c48.5-75.8,45-178-9.1-250C426.9,145.6,419.9,137.3,412.2,129.6c-6.8-6.9-17.4,3.7-10.6,10.6c29.2,29.4,49.2,66.8,56.9,107.6     c7.6,40.3,2.9,83.5-13.8,121c-17,38.2-45.5,70.8-81.1,92.7c-35.4,21.7-76.7,32-118.1,29.9c-83.6-4-158.8-61.1-185-140.8     c-13-39.6-13.8-82.9-2.1-123c11.7-40.1,35.9-75.7,68.2-102.1c34.7-28.4,78.8-44.4,123.6-45.6c45.7-1.2,90.6,12.7,127.5,39.7     c8.5,6.2,16.4,13.2,23.9,20.6C408.5,147,419.1,136.4,412.2,129.6z"/></g></g><g><g><path d="M420.8,261.5C420.8,261.5,420.8,261.5,420.8,261.5c-1.9,0-4,0.8-5.3,2.2c-0.7,0.7-1.2,1.5-1.6,2.4     c-0.5,0.9-0.7,1.9-0.6,2.9c0.1,1.9,0.7,4,2.2,5.3c1.5,1.3,3.3,2.2,5.3,2.2c0,0,0,0,0,0c1.9,0,3.9-0.8,5.3-2.2     c0.7-0.7,1.2-1.5,1.6-2.4c0.5-0.9,0.7-1.9,0.6-2.9c-0.1-1.9-0.7-4-2.2-5.3C424.7,262.4,422.9,261.5,420.8,261.5L420.8,261.5z"/></g></g><g><g><path d="M420.8,295.1C420.8,295.1,420.8,295.1,420.8,295.1c-1.9,0-4,0.8-5.3,2.2c-0.7,0.7-1.2,1.5-1.6,2.4     c-0.5,0.9-0.7,1.9-0.6,2.9c0.1,1.9,0.7,4,2.2,5.3c1.5,1.3,3.3,2.2,5.3,2.2c0,0,0,0,0,0c1.9,0,3.9-0.8,5.3-2.2     c0.7-0.7,1.2-1.5,1.6-2.4c0.5-0.9,0.7-1.9,0.6-2.9c-0.1-1.9-0.7-4-2.2-5.3C424.7,296,422.9,295.1,420.8,295.1L420.8,295.1z"/></g></g><g><g><path d="M246.7,121C246.7,121,246.7,121,246.7,121c0-1.9-0.8-4-2.2-5.3c-0.7-0.7-1.5-1.2-2.4-1.6c-0.9-0.5-1.9-0.7-2.9-0.6     c-1.9,0.1-4,0.7-5.3,2.2c-1.3,1.5-2.2,3.3-2.2,5.3c0,0,0,0,0,0c0,1.9,0.8,3.9,2.2,5.3c0.7,0.7,1.5,1.2,2.4,1.6     c0.9,0.5,1.9,0.7,2.9,0.6c1.9-0.1,4-0.7,5.3-2.2C245.9,124.8,246.7,123,246.7,121L246.7,121z"/></g></g><g><g><path d="M280.3,121C280.3,121,280.3,121,280.3,121c0-1.9-0.8-4-2.2-5.3c-0.7-0.7-1.5-1.2-2.4-1.6c-0.9-0.5-1.9-0.7-2.9-0.6     c-1.9,0.1-4,0.7-5.3,2.2c-1.3,1.5-2.2,3.3-2.2,5.3c0,0,0,0,0,0c0,1.9,0.8,3.9,2.2,5.3c0.7,0.7,1.5,1.2,2.4,1.6     c0.9,0.5,1.9,0.7,2.9,0.6c1.9-0.1,4-0.7,5.3-2.2C279.5,124.8,280.3,123,280.3,121L280.3,121z"/></g></g><g><g><path d="M246.7,450.7C246.7,450.7,246.7,450.7,246.7,450.7c0-1.9-0.8-4-2.2-5.3c-0.7-0.7-1.5-1.2-2.4-1.6     c-0.9-0.5-1.9-0.7-2.9-0.6c-1.9,0.1-4,0.7-5.3,2.2c-1.3,1.5-2.2,3.3-2.2,5.3c0,0,0,0,0,0c0,1.9,0.8,3.9,2.2,5.3     c0.7,0.7,1.5,1.2,2.4,1.6c0.9,0.5,1.9,0.7,2.9,0.6c1.9-0.1,4-0.7,5.3-2.2C245.9,454.5,246.7,452.7,246.7,450.7L246.7,450.7z"/></g></g><g><g><path d="M280.3,450.7C280.3,450.7,280.3,450.7,280.3,450.7c0-1.9-0.8-4-2.2-5.3c-0.7-0.7-1.5-1.2-2.4-1.6     c-0.9-0.5-1.9-0.7-2.9-0.6c-1.9,0.1-4,0.7-5.3,2.2c-1.3,1.5-2.2,3.3-2.2,5.3c0,0,0,0,0,0c0,1.9,0.8,3.9,2.2,5.3     c0.7,0.7,1.5,1.2,2.4,1.6c0.9,0.5,1.9,0.7,2.9,0.6c1.9-0.1,4-0.7,5.3-2.2C279.5,454.5,280.3,452.7,280.3,450.7L280.3,450.7z"/></g></g><g><path d="M387.1,269h33.8c-7.9-78-70-140.1-148-148v31.1h-33.6V121c-78,7.9-140.1,70-148,148h33.8v33.6H91.2    c7.9,78,70.1,140.1,148,148V416h33.6v34.7c78-7.9,140.1-70.1,148-148h-33.8V269z M292.7,326.7L256,342.5l-91.7,39.3l55-128.4    l36.7-15.7l91.7-39.3L292.7,326.7z" fill="#1C75BC"/><g><path d="M387.1,276.5c11.3,0,22.5,0,33.8,0c3.7,0,7.9-3.5,7.5-7.5c-6.5-62-46-117.4-103.6-142.1c-16.6-7.1-33.9-11.5-51.9-13.4     c-4-0.4-7.5,3.8-7.5,7.5c0,10.4,0,20.7,0,31.1c2.5-2.5,5-5,7.5-7.5c-11.2,0-22.4,0-33.6,0c2.5,2.5,5,5,7.5,7.5     c0-10.4,0-20.7,0-31.1c0-3.7-3.5-7.9-7.5-7.5c-62,6.5-117.4,46-142.1,103.6C90,233.7,85.6,251,83.7,269c-0.4,4,3.8,7.5,7.5,7.5     c11.3,0,22.5,0,33.8,0c-2.5-2.5-5-5-7.5-7.5c0,11.2,0,22.4,0,33.6c2.5-2.5,5-5,7.5-7.5c-11.3,0-22.5,0-33.8,0     c-3.7,0-7.9,3.5-7.5,7.5c6.5,62,46,117.4,103.6,142.1c16.6,7.1,33.9,11.5,51.9,13.4c4,0.4,7.5-3.8,7.5-7.5c0-11.6,0-23.1,0-34.7     c-2.5,2.5-5,5-7.5,7.5c11.2,0,22.4,0,33.6,0c-2.5-2.5-5-5-7.5-7.5c0,11.6,0,23.1,0,34.7c0,3.7,3.5,7.9,7.5,7.5     c62-6.5,117.4-46,142.1-103.6c7.1-16.6,11.5-33.9,13.4-51.9c0.4-4-3.8-7.5-7.5-7.5c-11.3,0-22.5,0-33.8,0c2.5,2.5,5,5,7.5,7.5     c0-11.2,0-22.4,0-33.6c0-9.7-15-9.7-15,0c0,11.2,0,22.4,0,33.6c0,4.1,3.4,7.5,7.5,7.5c11.3,0,22.5,0,33.8,0c-2.5-2.5-5-5-7.5-7.5     c-5.9,56.2-42.8,105.6-94.3,128.3c-14.6,6.4-30.4,10.5-46.2,12.2c2.5,2.5,5,5,7.5,7.5c0-11.6,0-23.1,0-34.7     c0-4.1-3.4-7.5-7.5-7.5c-11.2,0-22.4,0-33.6,0c-4.1,0-7.5,3.4-7.5,7.5c0,11.6,0,23.1,0,34.7c2.5-2.5,5-5,7.5-7.5     c-56.2-5.9-105.6-42.8-128.3-94.3c-6.4-14.6-10.5-30.4-12.2-46.2c-2.5,2.5-5,5-7.5,7.5c11.3,0,22.5,0,33.8,0     c4.1,0,7.5-3.4,7.5-7.5c0-11.2,0-22.4,0-33.6c0-4.1-3.4-7.5-7.5-7.5c-11.3,0-22.5,0-33.8,0c2.5,2.5,5,5,7.5,7.5     c5.9-56.2,42.8-105.6,94.3-128.3c14.6-6.4,30.4-10.5,46.2-12.2c-2.5-2.5-5-5-7.5-7.5c0,10.4,0,20.7,0,31.1c0,4.1,3.4,7.5,7.5,7.5     c11.2,0,22.4,0,33.6,0c4.1,0,7.5-3.4,7.5-7.5c0-10.4,0-20.7,0-31.1c-2.5,2.5-5,5-7.5,7.5c56.2,5.9,105.5,42.8,128.3,94.3     c6.4,14.6,10.5,30.4,12.2,46.2c2.5-2.5,5-5,7.5-7.5c-11.3,0-22.5,0-33.8,0C377.4,261.5,377.4,276.5,387.1,276.5z"/><path d="M288.9,320.3c-35.9,15.4-71.9,30.8-107.8,46.2c-6.9,2.9-13.7,5.9-20.6,8.8c3.4,3.4,6.8,6.8,10.3,10.3     C186.9,348,203,310.5,219,273c1.5-3.5,3-6.9,4.4-10.4c0.4-0.8,2.5-4.3,2.2-5.2c0,0.1-3.9,2.3-1.9,2.1c1.8-0.2,4.1-1.7,5.7-2.4     c5.8-2.5,11.6-5,17.3-7.4c14.5-6.2,29-12.4,43.4-18.6c20.4-8.7,40.8-17.5,61.2-26.2c-3.4-3.4-6.8-6.8-10.3-10.3     c-16.1,37.5-32.2,75-48.2,112.6c-2.3,5.3-4.5,10.5-6.8,15.8c-1.6,3.8-1.1,8,2.7,10.3c3.1,1.9,8.7,1,10.3-2.7     c16.1-37.5,32.2-75,48.2-112.6c2.3-5.3,4.5-10.5,6.8-15.8c3.1-7.1-3.1-13.3-10.3-10.3c-32.5,13.9-64.9,27.8-97.4,41.7     c-5.7,2.5-11.4,4.9-17.1,7.4c-4.4,1.9-9.2,3.4-13.3,5.7c-4.1,2.3-5.5,8.3-7.2,12.4c-9.4,21.9-18.7,43.8-28.1,65.6     c-7.6,17.7-15.2,35.5-22.8,53.2c-3.1,7.1,3.1,13.3,10.3,10.3c32.2-13.8,64.5-27.6,96.7-41.5c10.5-4.5,21.1-9,31.6-13.6     c3.8-1.6,4.5-7.1,2.7-10.3C297,319.1,292.6,318.7,288.9,320.3z"/></g></g><g><path d="M272.8,416v34.7c-5.5,0.6-11.1,0.9-16.8,0.9s-11.3-0.3-16.8-0.9V416H272.8z" fill="#F7941E"/><g><path d="M265.3,416c0,11.6,0,23.1,0,34.7c2.5-2.5,5-5,7.5-7.5c-11.2,1.1-22.4,1.1-33.6,0c2.5,2.5,5,5,7.5,7.5     c0-11.6,0-23.1,0-34.7c-2.5,2.5-5,5-7.5,7.5c11.2,0,22.4,0,33.6,0c9.7,0,9.7-15,0-15c-11.2,0-22.4,0-33.6,0     c-4.1,0-7.5,3.4-7.5,7.5c0,11.6,0,23.1,0,34.7c0,4.3,3.5,7.1,7.5,7.5c11.2,1.1,22.4,1.1,33.6,0c4-0.4,7.5-3.1,7.5-7.5     c0-11.6,0-23.1,0-34.7C280.3,406.3,265.3,406.3,265.3,416z"/></g></g><g><path d="M124.9,269v33.6H91.2c-0.6-5.5-0.8-11.1-0.8-16.8c0-5.7,0.3-11.3,0.8-16.8H124.9z" fill="#F7941E"/><g><path d="M117.4,269c0,11.2,0,22.4,0,33.6c2.5-2.5,5-5,7.5-7.5c-11.3,0-22.5,0-33.8,0c2.5,2.5,5,5,7.5,7.5     c-1.1-11.2-1.1-22.4,0-33.6c-2.5,2.5-5,5-7.5,7.5c11.3,0,22.5,0,33.8,0c9.7,0,9.7-15,0-15c-11.3,0-22.5,0-33.8,0     c-4.3,0-7.1,3.5-7.5,7.5c-1.1,11.2-1.1,22.4,0,33.6c0.4,4,3.1,7.5,7.5,7.5c11.3,0,22.5,0,33.8,0c4.1,0,7.5-3.4,7.5-7.5     c0-11.2,0-22.4,0-33.6C132.4,259.4,117.4,259.3,117.4,269z"/></g></g><g><path d="M272.8,121v31.1h-33.6V121c5.5-0.6,11.1-0.8,16.8-0.8S267.3,120.4,272.8,121z" fill="#F7941E"/><g><path d="M265.3,121c0,10.4,0,20.7,0,31.1c2.5-2.5,5-5,7.5-7.5c-11.2,0-22.4,0-33.6,0c2.5,2.5,5,5,7.5,7.5c0-10.4,0-20.7,0-31.1     c-2.5,2.5-5,5-7.5,7.5c11.2-1.1,22.4-1.1,33.6,0c9.6,0.9,9.5-14.1,0-15c-11.2-1.1-22.4-1.1-33.6,0c-4,0.4-7.5,3.1-7.5,7.5     c0,10.4,0,20.7,0,31.1c0,4.1,3.4,7.5,7.5,7.5c11.2,0,22.4,0,33.6,0c4.1,0,7.5-3.4,7.5-7.5c0-10.4,0-20.7,0-31.1     C280.3,111.3,265.3,111.3,265.3,121z"/></g></g><g><path d="M421.7,285.8c0,5.7-0.3,11.3-0.8,16.8h-33.8V269h33.8C421.4,274.5,421.7,280.1,421.7,285.8z" fill="#F7941E"/><g><path d="M414.2,285.8c0,5.6-0.3,11.2-0.8,16.8c2.5-2.5,5-5,7.5-7.5c-11.3,0-22.5,0-33.8,0c2.5,2.5,5,5,7.5,7.5     c0-11.2,0-22.4,0-33.6c-2.5,2.5-5,5-7.5,7.5c11.3,0,22.5,0,33.8,0c-2.5-2.5-5-5-7.5-7.5C413.9,274.6,414.1,280.2,414.2,285.8     c0.1,9.6,15.1,9.7,15,0c0-5.6-0.3-11.2-0.8-16.8c-0.4-4-3.1-7.5-7.5-7.5c-11.3,0-22.5,0-33.8,0c-4.1,0-7.5,3.4-7.5,7.5     c0,11.2,0,22.4,0,33.6c0,4.1,3.4,7.5,7.5,7.5c11.3,0,22.5,0,33.8,0c4.3,0,7.1-3.5,7.5-7.5c0.5-5.6,0.8-11.2,0.8-16.8     C429.2,276.2,414.2,276.2,414.2,285.8z"/></g></g><g><polygon fill="#EF4136" points="347.7,198.4 292.7,326.7 256,342.5 164.3,381.8 219.3,253.4 256,237.7   "/><g><path d="M341.2,194.6c-16.1,37.5-32.2,75-48.2,112.6c-1.5,3.5-3,6.9-4.4,10.4c-0.4,0.8-2.5,4.3-2.2,5.2c0-0.1,3.9-2.3,1.9-2.1     c-1.8,0.2-4.1,1.7-5.7,2.4c-5.8,2.5-11.6,5-17.3,7.4c-14.5,6.2-29,12.4-43.4,18.6c-20.4,8.7-40.8,17.5-61.2,26.2     c3.4,3.4,6.8,6.8,10.3,10.3C186.9,348,203,310.5,219,273c1.5-3.5,3-6.9,4.4-10.4c0.4-0.8,2.5-4.3,2.2-5.2c0,0.1-3.9,2.3-1.9,2.1     c1.8-0.2,4.1-1.7,5.7-2.4c5.8-2.5,11.6-5,17.3-7.4c14.5-6.2,29-12.4,43.4-18.6c20.4-8.7,40.8-17.5,61.2-26.2     c3.8-1.6,4.5-7.1,2.7-10.3c-2.2-3.9-6.6-4.3-10.3-2.7c-32.5,13.9-64.9,27.8-97.4,41.7c-5.7,2.5-11.4,4.9-17.1,7.4     c-4.4,1.9-9.2,3.4-13.3,5.7c-4.1,2.3-5.5,8.3-7.2,12.4c-9.4,21.9-18.7,43.8-28.1,65.6c-7.6,17.7-15.2,35.5-22.8,53.2     c-3.1,7.1,3.1,13.3,10.3,10.3c32.5-13.9,64.9-27.8,97.4-41.7c5.7-2.5,11.4-4.9,17.2-7.4c4.4-1.9,9.2-3.4,13.3-5.7     c4.1-2.3,5.5-8.3,7.2-12.4c9.4-21.9,18.7-43.7,28.1-65.6c7.6-17.7,15.2-35.5,22.8-53.2c1.6-3.8,1.1-8-2.7-10.3     C348.3,190,342.8,190.9,341.2,194.6z"/></g></g></g></svg>