<?xml version="1.0" ?><svg viewBox="0 0 32 32" xmlns="http://www.w3.org/2000/svg"><title/><g data-name="filled line" id="filled_line"><path d="M26.5732,9.1807l-10-7a1.0028,1.0028,0,0,0-1.1738.02l-9.3125,7A1,1,0,0,0,6.6875,11H26a1,1,0,0,0,.5732-1.8193Z" style="fill:#d32344"/><path d="M10,12a1,1,0,0,0-1,1v6a1,1,0,0,0,2,0V13A1,1,0,0,0,10,12Z" style="fill:#246eb9"/><path d="M22,12a1,1,0,0,0-1,1v6a1,1,0,0,0,2,0V13A1,1,0,0,0,22,12Z" style="fill:#246eb9"/><path d="M16,12a1,1,0,0,0-1,1V26a1,1,0,0,0,2,0V13A1,1,0,0,0,16,12Z" style="fill:#246eb9"/><rect height="5" rx="1" ry="1" style="fill:#61b636" width="20" x="6" y="25"/><path d="M29.8818,9.5283A1,1,0,0,0,29,9H3a1,1,0,0,0-.832,1.5547l2,3A1,1,0,0,0,5,14H27a1,1,0,0,0,.832-.4453l2-3A1.001,1.001,0,0,0,29.8818,9.5283Z" style="fill:#61b636"/><path d="M25,18H19a1,1,0,0,0-1,1v1a4,4,0,0,0,8,0V19A1,1,0,0,0,25,18Z" style="fill:#d32344"/><path d="M13,18H7a1,1,0,0,0-1,1v1a4,4,0,0,0,8,0V19A1,1,0,0,0,13,18Z" style="fill:#d32344"/><path d="M29.8818,9.5283A1,1,0,0,0,29,9H26.3151L16.5732,2.1807a1.0028,1.0028,0,0,0-1.1738.02L6.3533,9H3a1,1,0,0,0-.832,1.5547l2,3A1,1,0,0,0,5,14H9v4H7a1,1,0,0,0-1,1v1a4,4,0,0,0,8,0V19a1,1,0,0,0-1-1H11V14h4V25H7a1,1,0,0,0-1,1v3a1,1,0,0,0,1,1H25a1,1,0,0,0,1-1V26a1,1,0,0,0-1-1H17V14h4v4H19a1,1,0,0,0-1,1v1a4,4,0,0,0,8,0V19a1,1,0,0,0-1-1H23V14h4a1,1,0,0,0,.832-.4453l2-3A1.001,1.001,0,0,0,29.8818,9.5283ZM10,22a2.0027,2.0027,0,0,1-2-2h4A2.0027,2.0027,0,0,1,10,22Zm14,6H8V27H24Zm-2-6a2.0027,2.0027,0,0,1-2-2h4A2.0027,2.0027,0,0,1,22,22ZM16.02,4.2354,22.8281,9H9.6826ZM26.4648,12H5.5352l-.667-1H27.1318Z"/></g></svg>